<?xml version="1.0" standalone="no"?>
<!DOCTYPE svg PUBLIC "-//W3C//DTD SVG 20010904//EN"
 "http://www.w3.org/TR/2001/REC-SVG-20010904/DTD/svg10.dtd">
<svg version="1.0" xmlns="http://www.w3.org/2000/svg"
 width="128.000000pt" height="128.000000pt" viewBox="0 0 128.000000 128.000000"
 preserveAspectRatio="xMidYMid meet">

<g transform="translate(0.000000,128.000000) scale(0.100000,-0.100000)"
fill="#000000" stroke="none">
<path d="M505 1256 c-302 -69 -509 -343 -492 -652 9 -159 70 -295 183 -408 72
-72 145 -118 246 -154 63 -22 89 -26 193 -27 97 0 133 4 190 22 192 61 342
207 413 405 23 64 26 88 26 198 0 110 -3 134 -26 198 -37 101 -82 174 -154
246 -117 117 -253 176 -419 182 -62 2 -123 -1 -160 -10z m315 -291 l0 -65 -44
0 c-70 0 -76 -5 -76 -66 l0 -54 61 0 62 0 -7 -46 c-3 -26 -6 -57 -6 -70 0 -22
-4 -24 -55 -24 l-55 0 0 -195 0 -195 -80 0 -80 0 0 195 0 195 -40 0 -40 0 0
70 0 70 40 0 40 0 0 73 c0 83 19 125 72 157 26 16 51 20 121 20 l87 0 0 -65z"/>
</g>
</svg>
